HIERARCHY
ROOT Hips
{
	OFFSET 0.000000 0.000000 0.000000
	CHANNELS 6 Xposition Yposition Zposition Xrotation Yrotation Zrotation
	JOINT LeftUpLeg_virtual
	{
		OFFSET 0.000000 0.000000 0.000000
		CHANNELS 3 Xrotation Yrotation Zrotation
		JOINT LeftUpLeg
		{
			OFFSET 10.205400 -3.823500 0.155100
			CHANNELS 3 Xrotation Yrotation Zrotation
			JOINT LeftLeg
			{
				OFFSET 0.708757 -12.982077 0.567790
				CHANNELS 3 Xrotation Yrotation Zrotation
				JOINT LeftFoot
				{
					OFFSET -0.708756 -10.717838 -2.184338
					CHANNELS 3 Xrotation Yrotation Zrotation
					JOINT LeftToeBase
					{
						OFFSET 0.108149 -7.191104 7.560241
						CHANNELS 3 Xrotation Yrotation Zrotation
						JOINT LeftToe_End
						{
							OFFSET 0.070230 0.081724 4.490308
							CHANNELS 3 Xrotation Yrotation Zrotation
							End Site
							{
								OFFSET 0 0 0
							}
						}
					}
				}
			}
		}
	}
	JOINT RightUpLeg_virtual
	{
		OFFSET 0.000000 0.000000 0.000000
		CHANNELS 3 Xrotation Yrotation Zrotation
		JOINT RightUpLeg
		{
			OFFSET -10.205400 -3.823500 0.005500
			CHANNELS 3 Xrotation Yrotation Zrotation
			JOINT RightLeg
			{
				OFFSET -0.708756 -12.982134 0.610632
				CHANNELS 3 Xrotation Yrotation Zrotation
				JOINT RightFoot
				{
					OFFSET 0.708754 -10.717769 -1.945823
					CHANNELS 3 Xrotation Yrotation Zrotation
					JOINT RightToeBase
					{
						OFFSET -0.108140 -7.191069 7.372968
						CHANNELS 3 Xrotation Yrotation Zrotation
						JOINT RightToe_End
						{
							OFFSET -0.070227 0.081735 4.479403
							CHANNELS 3 Xrotation Yrotation Zrotation
							End Site
							{
								OFFSET 0 0 0
							}
						}
					}
				}
			}
		}
	}
	JOINT Spine_virtual
	{
		OFFSET 0.000000 0.000000 0.000000
		CHANNELS 3 Xrotation Yrotation Zrotation
		JOINT Spine
		{
			OFFSET 0.000000 6.876099 0.125700
			CHANNELS 3 Xrotation Yrotation Zrotation
			JOINT Spine1
			{
				OFFSET 0.000000 5.730043 0.104720
				CHANNELS 3 Xrotation Yrotation Zrotation
				JOINT Spine1_split
				{
					OFFSET 0.000000 5.730043 0.104720
					CHANNELS 3 Xrotation Yrotation Zrotation
					JOINT Spine2
					{
						OFFSET 0.000000 5.730043 0.104720
						CHANNELS 3 Xrotation Yrotation Zrotation
						JOINT Neck_virtual
						{
							OFFSET 0.000000 0.000000 0.000000
							CHANNELS 3 Xrotation Yrotation Zrotation
							JOINT Neck
							{
								OFFSET 0.000000 10.314075 0.188496
								CHANNELS 3 Xrotation Yrotation Zrotation
								JOINT Head
								{
									OFFSET 0.000000 7.643700 -2.377400
									CHANNELS 3 Xrotation Yrotation Zrotation
									JOINT HeadTop_End
									{
										OFFSET 0.000000 43.788605 -13.619600
										CHANNELS 3 Xrotation Yrotation Zrotation
										End Site
										{
											OFFSET 0 0 0
										}
									}
								}
							}
						}
						JOINT LeftShoulder_virtual
						{
							OFFSET 0.000000 0.000000 0.000000
							CHANNELS 3 Xrotation Yrotation Zrotation
							JOINT LeftShoulder
							{
								OFFSET 2.196100 4.412489 0.087492
								CHANNELS 3 Xrotation Yrotation Zrotation
								JOINT LeftShoulder_split
								{
									OFFSET 2.196100 4.412489 0.087492
									CHANNELS 3 Xrotation Yrotation Zrotation
									JOINT LeftArm
									{
										OFFSET 8.771219 -2.981674 -0.026999
										CHANNELS 3 Xrotation Yrotation Zrotation
										JOINT LeftForeArm
										{
											OFFSET 8.512804 0.000000 -0.000000
											CHANNELS 3 Xrotation Yrotation Zrotation
											JOINT LeftHand
											{
												OFFSET 18.484802 0.000000 -0.000000
												CHANNELS 3 Xrotation Yrotation Zrotation
												End Site
												{
													OFFSET 0 0 0
												}
											}
										}
									}
								}
							}
						}
						JOINT RightShoulder_virtual
						{
							OFFSET 0.000000 0.000000 0.000000
							CHANNELS 3 Xrotation Yrotation Zrotation
							JOINT RightShoulder
							{
								OFFSET -2.196100 4.412496 0.070690
								CHANNELS 3 Xrotation Yrotation Zrotation
								JOINT RightShoulder_split
								{
									OFFSET -2.196100 4.412496 0.070690
									CHANNELS 3 Xrotation Yrotation Zrotation
									JOINT RightArm
									{
										OFFSET -8.771282 -2.981682 -0.094208
										CHANNELS 3 Xrotation Yrotation Zrotation
										JOINT RightForeArm
										{
											OFFSET -8.494598 0.000000 0.000000
											CHANNELS 3 Xrotation Yrotation Zrotation
											JOINT RightHand
											{
												OFFSET -18.483803 0.000000 0.000001
												CHANNELS 3 Xrotation Yrotation Zrotation
												End Site
												{
													OFFSET 0 0 0
												}
											}
										}
									}
								}
							}
						}
					}
				}
			}
		}
	}
}
MOTION
Frames: 5
Frame Time: 0.03333333
-1.296770 51.831707 -1.025453 0.000000 0.000000 0.000000 6.504649 3.232606 4.122142 -50.904860 13.431906 5.847806 43.760008 6.278032 -3.664236 37.571057 7.835867 4.151152 -9.769667 0.761702 3.047290 0.000000 0.000000 0.000000 7.425895 4.449943 3.245941 -3.112713 0.124893 -6.739685 28.089471 -5.299843 9.936520 17.890723 -15.352160 18.146353 -1.141757 3.470881 0.249728 0.000000 0.000000 0.000000 7.535622 1.177488 4.244449 -10.203363 2.352612 0.666601 -3.569414 0.859383 -0.191968 2.663312 -5.284423 2.293577 0.000000 0.000000 0.000000 -1.258222 -0.177039 0.382057 -21.082214 -0.380107 -2.805632 -2.337618 -0.958327 5.449347 0.000000 0.000000 0.000000 -6.376214 0.422239 -0.389970 14.809911 3.631735 29.136446 9.897597 10.343843 -0.021452 -56.760931 -36.935105 8.526660 -36.072097 -23.051484 6.183754 0.000000 0.000000 0.000000 -6.231502 0.255951 0.695641 4.505935 -8.544205 -32.755740 -4.469151 2.782435 -0.286928 -69.720864 33.895394 11.851922 -27.257200 21.011258 0.077702 0.000000 0.000000 0.000000 
-0.846023 52.145638 -1.958920 0.000000 0.000000 0.000000 6.020380 0.865947 4.512967 -50.020614 11.128290 4.272697 46.123082 5.459082 -3.295252 36.246885 7.192383 3.040261 -8.591195 0.642758 2.777043 0.000000 0.000000 0.000000 7.351083 2.038576 3.580854 -4.436024 -1.974610 -7.315332 32.652717 -3.773139 10.503489 21.160650 -14.032461 18.401607 0.823378 3.344256 0.316734 0.000000 0.000000 0.000000 7.402565 -0.505882 4.714967 -10.338973 2.100947 0.661867 -3.695224 1.145994 0.294392 1.982091 -3.729481 1.221005 0.000000 0.000000 0.000000 -0.294379 0.226559 0.544835 -21.019356 -0.787843 -1.947647 -3.916348 -1.635759 5.310011 0.000000 0.000000 0.000000 -6.018676 0.724056 0.099205 14.698482 3.849366 29.368099 9.351477 8.824141 0.128406 -59.314462 -39.418647 5.011291 -34.910934 -23.651827 7.933114 0.000000 0.000000 0.000000 -5.711635 0.520925 0.887184 4.424366 -8.437470 -33.147424 -4.686075 2.836962 -0.228348 -70.122868 33.455544 11.645120 -27.309302 21.821420 0.025261 0.000000 0.000000 0.000000 
-0.161053 52.644783 -3.323844 0.000000 0.000000 0.000000 5.200019 -3.590712 4.524560 -50.295997 8.466043 2.261890 51.512658 2.885894 -2.385745 32.458910 4.727819 1.066487 -7.110918 0.413587 2.018980 0.000000 0.000000 0.000000 7.126565 -2.560261 3.874832 -4.636223 -3.547018 -8.307896 35.525860 -2.736647 10.315421 24.639399 -11.665738 18.508571 0.107826 3.156993 0.720139 0.000000 0.000000 0.000000 7.081344 -4.370882 4.965953 -9.477897 2.420638 0.814631 -3.835246 2.261498 0.860573 1.651666 -1.793017 0.062281 0.000000 0.000000 0.000000 0.448764 1.513770 0.720361 -20.573553 -1.118384 -1.142625 -7.108260 -1.865604 5.001666 0.000000 0.000000 0.000000 -5.936633 1.911372 0.570492 14.989846 4.716336 29.501315 8.763340 7.354219 -0.149366 -65.506159 -41.318458 -1.209957 -33.344447 -26.376531 10.891661 0.000000 0.000000 0.000000 -5.366422 1.657585 1.226802 5.022850 -7.853543 -33.689611 -4.637724 2.588385 -0.182280 -71.540358 31.771404 12.045599 -27.568899 23.182111 -0.172042 0.000000 0.000000 0.000000 
0.444455 53.232052 -4.747811 0.000000 0.000000 0.000000 4.456835 -9.087480 4.138393 -51.693546 6.158106 0.342272 57.714866 -0.096181 -1.334686 26.440769 1.852771 -0.823667 -6.332641 0.014472 1.170625 0.000000 0.000000 0.000000 6.868022 -8.822833 3.959711 -3.309504 -4.735905 -9.387917 35.566779 -2.655470 9.113599 26.021539 -9.796927 16.408109 -1.221291 2.978183 1.441667 0.000000 0.000000 0.000000 6.573399 -10.486549 4.671368 -7.478330 3.300409 1.088942 -3.848281 4.090170 1.466464 1.821144 0.025848 -0.724265 0.000000 0.000000 0.000000 0.855801 3.553242 0.910145 -19.803307 -1.434278 -0.393439 -11.251573 -1.524534 4.662608 0.000000 0.000000 0.000000 -5.897509 3.852354 0.960309 15.588754 6.263601 29.651777 7.417916 6.349828 -0.310805 -72.568110 -41.262634 -7.394024 -31.596612 -29.441968 14.951115 0.000000 0.000000 0.000000 -5.069439 3.610204 1.686773 6.082155 -6.914878 -34.407061 -4.597874 2.256355 -0.204144 -73.513893 29.768772 12.726972 -27.775564 24.518100 -0.662938 0.000000 0.000000 0.000000 
0.872692 53.828323 -6.113900 0.000000 0.000000 0.000000 4.088362 -15.537463 3.432554 -52.956075 4.661094 -1.184374 62.023718 -1.971029 -0.512053 18.782629 0.611416 -1.144634 -6.395272 -0.494017 0.488404 0.000000 0.000000 0.000000 6.853236 -16.661408 3.805536 -1.160124 -5.613187 -10.755255 33.121670 -3.046996 7.387908 25.556591 -8.804221 11.561049 -0.348436 2.849077 2.489319 0.000000 0.000000 0.000000 6.004222 -18.292473 3.976846 -4.743764 4.644389 1.413836 -3.657851 6.412338 2.082617 2.370065 0.781047 -0.463317 0.000000 0.000000 0.000000 1.021576 6.101338 1.125389 -18.695385 -1.795032 0.394354 -15.056611 -0.531384 4.503342 0.000000 0.000000 0.000000 -5.586746 6.304820 1.245162 16.372988 8.489581 29.759916 5.555498 5.510163 -0.612844 -77.786648 -39.880143 -11.085612 -30.429466 -31.611120 19.352957 0.000000 0.000000 0.000000 -4.758531 6.186735 2.232343 7.358714 -5.767691 -35.292325 -4.653024 1.911836 -0.560057 -75.493261 28.466832 13.357917 -27.863962 25.665997 -1.452051 0.000000 0.000000 0.000000 
